<svg version="1.1"
	 xmlns="http://www.w3.org/2000/svg" xmlns:xlink="http://www.w3.org/1999/xlink" 
	 x="0px" y="0px" width="423.8px" height="87.1px" viewBox="0 0 423.8 87.1" enable-background="new 0 0 423.8 87.1"
	 xml:space="preserve">
<defs>
</defs>
<g>
	<g>
		<path fill="#808285" d="M100.2,83h1.4v-8.8h-3V76h-0.9v-2.6h8.8V76h-1v-1.7h-2.9V83h1.4v0.9h-3.8V83z"/>
		<path fill="#808285" d="M109.7,83.1h1.3v-8.9h-1.4v-0.8h2.4v4.1c0,0.3-0.1,0.6-0.1,0.6h0c0.3-0.7,1.3-1.9,3-1.9
			c1.9,0,2.5,1.1,2.5,2.9v4h1.3v0.8h-2.3v-4.5c0-1.2-0.2-2.2-1.6-2.2c-1.6,0-2.9,1.3-2.9,3.1v2.8h1.3v0.8h-3.6V83.1z"/>
		<path fill="#808285" d="M125.8,76.2c2.1,0,3.2,1.6,3.2,3.5c0,0.2,0,0.5,0,0.5h-5.8c0,1.9,1.4,3,2.9,3c1.4,0,2.3-0.9,2.3-0.9
			l0.5,0.8c0,0-1.1,1-2.8,1c-2.2,0-3.9-1.6-3.9-3.9C122.1,77.7,123.8,76.2,125.8,76.2z M127.9,79.4c-0.1-1.6-1-2.4-2.1-2.4
			c-1.3,0-2.4,0.8-2.6,2.4H127.9z"/>
		<path fill="#808285" d="M138.6,83.1h1.3v-5.5c0-0.2-0.1-0.3-0.3-0.3h-1v-0.8h1.4c0.6,0,0.9,0.3,0.9,0.8v0.4c0,0.3-0.1,0.5-0.1,0.5
			h0c0.2-0.6,1.2-2,3.1-2c1.9,0,2.5,1.1,2.5,2.9v4h1.3v0.8h-2.3v-4.5c0-1.2-0.2-2.2-1.6-2.2c-1.7,0-2.9,1.5-2.9,3.1v2.8h1.3v0.8
			h-3.6V83.1z"/>
		<path fill="#808285" d="M154.7,76.2c2.1,0,3.2,1.6,3.2,3.5c0,0.2,0,0.5,0,0.5H152c0,1.9,1.4,3,2.9,3c1.4,0,2.3-0.9,2.3-0.9
			l0.5,0.8c0,0-1.1,1-2.8,1c-2.2,0-3.9-1.6-3.9-3.9C151,77.7,152.7,76.2,154.7,76.2z M156.8,79.4c-0.1-1.6-1-2.4-2.1-2.4
			c-1.3,0-2.4,0.8-2.6,2.4H156.8z"/>
		<path fill="#808285" d="M161.3,83.1h1.2l1.9-3.1l-1.8-2.8h-1.3v-0.8h1.9l1.5,2.5c0.1,0.2,0.2,0.4,0.2,0.4h0c0,0,0.1-0.2,0.2-0.4
			l1.5-2.5h1.8v0.8h-1.2l-1.8,2.8l2,3.1h1.1v0.8h-1.8l-1.7-2.8c-0.1-0.2-0.3-0.4-0.3-0.4h0c0,0-0.1,0.2-0.2,0.5l-1.7,2.8h-1.8V83.1z
			"/>
		<path fill="#808285" d="M173,77.2h-1.4v-0.8h1.4v-2.1h1v2.1h1.9v0.8H174v3.9c0,1.8,1.1,2,1.7,2c0.2,0,0.3,0,0.3,0v0.9
			c0,0-0.2,0-0.4,0c-0.9,0-2.6-0.3-2.6-2.8V77.2z"/>
		<path fill="#808285" d="M188.5,86.2c1.5,0,2.6-0.7,2.6-2.4V83c0-0.3,0-0.5,0-0.5h0c-0.4,0.8-1.2,1.4-2.4,1.4c-2,0-3.4-1.6-3.4-3.9
			c0-2.3,1.2-3.8,3.3-3.8c1.1,0,2.1,0.4,2.5,1.3h0c0,0,0-0.1,0-0.3c0-0.6,0.2-0.8,0.9-0.8h1.4v0.8h-0.9c-0.2,0-0.3,0.1-0.3,0.3v6.2
			c0,2.4-1.8,3.3-3.6,3.3c-0.9,0-1.7-0.2-2.5-0.6l0.4-0.8C186.5,85.6,187.4,86.2,188.5,86.2z M191.2,80c0-2.2-1-2.9-2.4-2.9
			c-1.5,0-2.3,1.1-2.3,2.9c0,1.8,1,3,2.5,3C190.1,83,191.2,82.2,191.2,80z"/>
		<path fill="#808285" d="M200.6,76.2c2.1,0,3.2,1.6,3.2,3.5c0,0.2,0,0.5,0,0.5h-5.8c0,1.9,1.4,3,2.9,3c1.4,0,2.3-0.9,2.3-0.9
			l0.5,0.8c0,0-1.1,1-2.8,1c-2.2,0-3.9-1.6-3.9-3.9C196.8,77.7,198.5,76.2,200.6,76.2z M202.7,79.4c-0.1-1.6-1-2.4-2.1-2.4
			c-1.3,0-2.4,0.8-2.6,2.4H202.7z"/>
		<path fill="#808285" d="M207.4,83.1h1.3v-5.5c0-0.2-0.1-0.3-0.3-0.3h-1v-0.8h1.4c0.6,0,0.9,0.3,0.9,0.8v0.4c0,0.3-0.1,0.5-0.1,0.5
			h0c0.2-0.6,1.2-2,3.1-2c1.9,0,2.5,1.1,2.5,2.9v4h1.3v0.8h-2.3v-4.5c0-1.2-0.2-2.2-1.6-2.2c-1.7,0-2.9,1.5-2.9,3.1v2.8h1.3v0.8
			h-3.6V83.1z"/>
		<path fill="#808285" d="M223.4,76.2c2.1,0,3.2,1.6,3.2,3.5c0,0.2,0,0.5,0,0.5h-5.8c0,1.9,1.4,3,2.9,3c1.4,0,2.3-0.9,2.3-0.9
			l0.5,0.8c0,0-1.1,1-2.8,1c-2.2,0-3.9-1.6-3.9-3.9C219.7,77.7,221.4,76.2,223.4,76.2z M225.5,79.4c-0.1-1.6-1-2.4-2.1-2.4
			c-1.3,0-2.4,0.8-2.6,2.4H225.5z"/>
		<path fill="#808285" d="M230.3,83.1h1.2v-5.5c0-0.2-0.1-0.3-0.3-0.3h-1v-0.8h1.4c0.6,0,0.9,0.3,0.9,0.9v0.5c0,0.3,0,0.6,0,0.6h0
			c0.4-1.1,1.2-2,2.4-2c0.2,0,0.4,0,0.4,0v1c0,0-0.2,0-0.4,0c-1.7,0-2.4,1.9-2.4,3.4v2.4h1.2v0.8h-3.4V83.1z"/>
		<path fill="#808285" d="M242.9,79.3h0.5V79c0-1.4-0.8-1.9-1.8-1.9c-1.3,0-2.2,0.7-2.2,0.7l-0.5-0.8c0,0,1-0.9,2.7-0.9
			c1.8,0,2.8,1,2.8,2.8v3.7c0,0.2,0.1,0.3,0.3,0.3h0.8v0.8h-1.2c-0.6,0-0.9-0.3-0.9-0.8V83c0-0.4,0-0.6,0-0.6h0c0,0-0.6,1.7-2.6,1.7
			c-1.2,0-2.5-0.7-2.5-2.2C238.4,79.4,241.6,79.3,242.9,79.3z M241,83.3c1.5,0,2.4-1.5,2.4-2.8v-0.4H243c-0.6,0-3.6-0.1-3.6,1.7
			C239.4,82.5,240,83.3,241,83.3z"/>
		<path fill="#808285" d="M249.7,77.2h-1.4v-0.8h1.4v-2.1h1v2.1h1.9v0.8h-1.9v3.9c0,1.8,1.1,2,1.7,2c0.2,0,0.3,0,0.3,0v0.9
			c0,0-0.2,0-0.4,0c-0.9,0-2.6-0.3-2.6-2.8V77.2z"/>
		<path fill="#808285" d="M256.1,83.1h1.3v-5.9h-1.4v-0.8h2.4v6.7h1.3v0.8h-3.6V83.1z M257.4,73.4h1.2v1.3h-1.2V73.4z"/>
		<path fill="#808285" d="M267,76.2c2.2,0,4,1.7,4,3.9c0,2.3-1.8,4-4,4c-2.2,0-4-1.7-4-4C263,77.9,264.8,76.2,267,76.2z M267,83.2
			c1.6,0,2.9-1.3,2.9-3.1c0-1.7-1.3-3-2.9-3c-1.6,0-2.9,1.3-2.9,3C264.1,81.9,265.4,83.2,267,83.2z"/>
		<path fill="#808285" d="M274.6,83.1h1.3v-5.5c0-0.2-0.1-0.3-0.3-0.3h-1v-0.8h1.4c0.6,0,0.9,0.3,0.9,0.8v0.4c0,0.3-0.1,0.5-0.1,0.5
			h0c0.2-0.6,1.2-2,3.1-2c1.9,0,2.5,1.1,2.5,2.9v4h1.3v0.8h-2.3v-4.5c0-1.2-0.2-2.2-1.7-2.2c-1.7,0-2.9,1.5-2.9,3.1v2.8h1.3v0.8
			h-3.6V83.1z"/>
		<path fill="#808285" d="M296.9,76.2c2.2,0,4,1.7,4,3.9c0,2.3-1.8,4-4,4c-2.2,0-4-1.7-4-4C292.9,77.9,294.7,76.2,296.9,76.2z
			 M296.9,83.2c1.6,0,2.9-1.3,2.9-3.1c0-1.7-1.3-3-2.9-3c-1.6,0-2.9,1.3-2.9,3C293.9,81.9,295.3,83.2,296.9,83.2z"/>
		<path fill="#808285" d="M304.4,83.1h1.3v-5.9h-1.4v-0.8h1.4V76c0-2.4,1.7-2.7,2.5-2.7c0.4,0,0.6,0,0.6,0v0.9c0,0-0.2,0-0.5,0
			c-0.5,0-1.5,0.2-1.5,1.8v0.4h1.9v0.8h-1.9v5.9h1.5v0.8h-3.8V83.1z"/>
		<path fill="#808285" d="M321.9,76.2c0.9,0,2.8,0.4,2.8,1.6v0.8h-0.9v-0.6c0-0.7-1.1-1-1.8-1c-1.7,0-2.9,1.2-2.9,3c0,1.9,1.3,3,3,3
			c1.5,0,2.3-0.9,2.5-1l0.4,0.8c-0.2,0.2-1.2,1.2-2.9,1.2c-2.2,0-4-1.5-4-3.9C318,77.8,319.8,76.2,321.9,76.2z"/>
		<path fill="#808285" d="M332.9,79.3h0.5V79c0-1.4-0.8-1.9-1.8-1.9c-1.3,0-2.2,0.7-2.2,0.7l-0.5-0.8c0,0,1-0.9,2.7-0.9
			c1.8,0,2.8,1,2.8,2.8v3.7c0,0.2,0.1,0.3,0.3,0.3h0.8v0.8h-1.2c-0.6,0-0.9-0.3-0.9-0.8V83c0-0.4,0-0.6,0-0.6h0c0,0-0.6,1.7-2.6,1.7
			c-1.2,0-2.5-0.7-2.5-2.2C328.4,79.4,331.6,79.3,332.9,79.3z M331,83.3c1.5,0,2.4-1.5,2.4-2.8v-0.4H333c-0.6,0-3.6-0.1-3.6,1.7
			C329.4,82.5,330,83.3,331,83.3z"/>
		<path fill="#808285" d="M339,83.1h1.2v-5.5c0-0.2-0.1-0.3-0.3-0.3h-1v-0.8h1.4c0.6,0,0.9,0.3,0.9,0.9v0.5c0,0.3,0,0.6,0,0.6h0
			c0.4-1.1,1.2-2,2.4-2c0.2,0,0.4,0,0.4,0v1c0,0-0.2,0-0.4,0c-1.7,0-2.4,1.9-2.4,3.4v2.4h1.2v0.8H339V83.1z"/>
		<path fill="#808285" d="M350.8,76.2c2.1,0,3.2,1.6,3.2,3.5c0,0.2,0,0.5,0,0.5h-5.8c0,1.9,1.4,3,2.9,3c1.4,0,2.3-0.9,2.3-0.9
			l0.5,0.8c0,0-1.1,1-2.8,1c-2.2,0-3.9-1.6-3.9-3.9C347.1,77.7,348.8,76.2,350.8,76.2z M352.9,79.4c-0.1-1.6-1-2.4-2.1-2.4
			c-1.3,0-2.4,0.8-2.6,2.4H352.9z"/>
		<path fill="#808285" d="M366.8,86.2c1.5,0,2.6-0.7,2.6-2.4V83c0-0.3,0-0.5,0-0.5h0c-0.4,0.8-1.2,1.4-2.4,1.4c-2,0-3.4-1.6-3.4-3.9
			c0-2.3,1.2-3.8,3.3-3.8c1.1,0,2.1,0.4,2.5,1.3h0c0,0,0-0.1,0-0.3c0-0.6,0.2-0.8,0.9-0.8h1.4v0.8h-0.9c-0.2,0-0.3,0.1-0.3,0.3v6.2
			c0,2.4-1.8,3.3-3.6,3.3c-0.9,0-1.7-0.2-2.5-0.6l0.4-0.8C364.7,85.6,365.6,86.2,366.8,86.2z M369.4,80c0-2.2-1-2.9-2.4-2.9
			c-1.5,0-2.3,1.1-2.3,2.9c0,1.8,1,3,2.5,3C368.4,83,369.4,82.2,369.4,80z"/>
		<path fill="#808285" d="M375,83.1h1.3v-5.9H375v-0.8h2.4v6.7h1.3v0.8H375V83.1z M376.3,73.4h1.2v1.3h-1.2V73.4z"/>
		<path fill="#808285" d="M381.3,76.4h3.1v0.8h-1.1l1.9,5.1c0.1,0.3,0.1,0.6,0.1,0.6h0c0,0,0-0.3,0.2-0.6l1.9-5.1h-1.1v-0.8h3.1v0.8
			h-1l-2.6,6.7h-1.1l-2.6-6.7h-1V76.4z"/>
		<path fill="#808285" d="M392.6,83.1h1.3v-5.9h-1.4v-0.8h2.4v6.7h1.3v0.8h-3.6V83.1z M393.8,73.4h1.2v1.3h-1.2V73.4z"/>
		<path fill="#808285" d="M399.5,83.1h1.3v-5.5c0-0.2-0.1-0.3-0.3-0.3h-1v-0.8h1.4c0.6,0,0.9,0.3,0.9,0.8v0.4c0,0.3-0.1,0.5-0.1,0.5
			h0c0.2-0.6,1.2-2,3.1-2c1.9,0,2.5,1.1,2.5,2.9v4h1.3v0.8h-2.3v-4.5c0-1.2-0.2-2.2-1.7-2.2c-1.7,0-2.9,1.5-2.9,3.1v2.8h1.3v0.8
			h-3.6V83.1z"/>
		<path fill="#808285" d="M415,86.2c1.5,0,2.6-0.7,2.6-2.4V83c0-0.3,0-0.5,0-0.5h0c-0.5,0.8-1.2,1.4-2.4,1.4c-2,0-3.4-1.6-3.4-3.9
			c0-2.3,1.2-3.8,3.3-3.8c1.1,0,2.1,0.4,2.5,1.3h0c0,0,0-0.1,0-0.3c0-0.6,0.2-0.8,0.9-0.8h1.4v0.8H419c-0.2,0-0.3,0.1-0.3,0.3v6.2
			c0,2.4-1.8,3.3-3.6,3.3c-0.9,0-1.7-0.2-2.5-0.6l0.4-0.8C413,85.6,413.9,86.2,415,86.2z M417.7,80c0-2.2-1.1-2.9-2.4-2.9
			c-1.5,0-2.3,1.1-2.3,2.9c0,1.8,1,3,2.5,3C416.6,83,417.7,82.2,417.7,80z"/>
	</g>
	<g>
		<path fill="#8584C0" d="M92.9,49.5h2.8v1.6c0,2.3,3.3,3.3,5.9,3.3c2.9,0,5.3-1.3,5.3-3.6c0-2.6-2.9-3.5-6.1-4.7
			c-3.4-1.3-7-2.8-7-6.8c0-4.1,4-6,7.8-6c3.1,0,7.5,1.3,7.5,4.4v2.6h-2.8v-1.7c0-1.7-2.2-2.7-4.6-2.7c-2.5,0-4.8,1.1-4.8,3.3
			c0,2.5,2.7,3.5,5.7,4.6c3.5,1.3,7.4,2.7,7.4,6.8c0,3.9-3.5,6.4-8.5,6.4c-4.2,0-8.5-1.9-8.5-5.4V49.5z"/>
		<path fill="#8584C0" d="M126.4,33.4c6.3,0,9.5,4.8,9.5,10.4c0,0.5-0.1,1.4-0.1,1.4h-17.4c0.1,5.8,4.1,9.1,8.8,9.1
			c4.1,0,6.9-2.7,6.9-2.7l1.4,2.3c0,0-3.2,3.2-8.4,3.2c-6.7,0-11.8-4.9-11.8-11.8C115.3,37.8,120.3,33.4,126.4,33.4z M132.7,43
			c-0.2-4.8-3.1-7.1-6.4-7.1c-3.8,0-7.1,2.5-7.8,7.1H132.7z"/>
		<path fill="#8584C0" d="M153,33.4c2.8,0,8.4,1.2,8.4,4.9v2.5h-2.8v-1.7c0-2-3.4-3-5.5-3c-4.9,0-8.7,3.6-8.7,9.1
			c0,5.6,4,9.1,8.9,9.1c4.4,0,7-2.8,7.4-3.1l1.3,2.3c-0.5,0.5-3.6,3.5-8.8,3.5c-6.5,0-11.9-4.6-11.9-11.8
			C141.2,38.2,146.5,33.4,153,33.4z"/>
		<path fill="#8584C0" d="M178.9,33.4c6.6,0,12,5,12,11.7c0,6.8-5.4,12-12,12c-6.6,0-11.9-5.1-11.9-12
			C167,38.4,172.4,33.4,178.9,33.4z M178.9,54.3c4.9,0,8.8-4,8.8-9.2c0-5.1-4-9-8.8-9c-4.8,0-8.8,3.9-8.8,9
			C170.2,50.4,174.1,54.3,178.9,54.3z"/>
		<path fill="#8584C0" d="M195.9,54h3.8V37.4c0-0.7-0.4-1-1-1h-3.1v-2.5h4.3c1.9,0,2.7,0.8,2.7,2.5v1.3c0,0.9-0.2,1.6-0.2,1.6h0.1
			c0.6-1.7,3.6-6,9.2-6c5.6,0,7.5,3.2,7.5,8.8V54h3.8v2.5h-6.9V43c0-3.6-0.6-6.7-4.9-6.7c-5,0-8.6,4.4-8.6,9.4V54h3.8v2.5h-10.7V54z
			"/>
		<path fill="#8584C0" d="M237.7,33.4c5.4,0,7.4,4.4,7.4,4.4h0.1c0,0-0.1-0.8-0.1-1.8v-8.6h-4v-2.5h7.1V53c0,0.7,0.4,1,1,1h2.5v2.5
			h-3.7c-1.9,0-2.7-0.9-2.7-2.5v-0.4c0-0.9,0.2-1.4,0.2-1.4h-0.1c0,0-1.9,4.8-8,4.8c-6.1,0-9.8-4.9-9.8-11.8
			C227.5,38.1,231.7,33.4,237.7,33.4z M237.8,54.3c3.8,0,7.3-2.7,7.3-9.1c0-4.6-2.3-9.1-7.2-9.1c-4,0-7.3,3.3-7.3,9.1
			C230.6,50.8,233.6,54.3,237.8,54.3z"/>
		<path fill="#5560AB" d="M255.6,53.9h4.1V27.5h-4.1v-2.6h7.2l17.7,25c0.5,0.7,0.9,1.9,0.9,1.9h0.1c0,0-0.2-1.4-0.1-2.2V27.5h-4.2
			v-2.6h11.5v2.6h-4.1v29h-3.1l-17.7-25c-0.5-0.7-0.9-1.9-0.9-1.9h-0.1c0,0,0.2,1.4,0.1,2.2v22.1h4.2v2.6h-11.5V53.9z"/>
		<path fill="#5560AB" d="M293.2,36.4h-4.1v-2.5h7.1v13.6c0,3.6,0.5,6.7,5,6.7c5.1,0,8.3-4.7,8.3-9.6v-8.2h-4.1v-2.5h7.1v19.2
			c0,0.7,0.4,1,1,1h2.6v2.5h-3.8c-1.9,0-2.7-0.8-2.7-2.5v-1.1c0-0.9,0-1.6,0-1.6h-0.1c-0.6,1.7-3.4,5.8-9,5.8
			c-5.2,0-7.4-2.9-7.4-8.8V36.4z"/>
		<path fill="#5560AB" d="M321.1,54h3.5V37.4c0-0.7-0.4-1-1-1h-3.1v-2.5h4.3c1.9,0,2.7,0.8,2.7,2.6V38c0,0.9-0.1,1.7-0.1,1.7h0.1
			c1.1-3.4,3.6-6,7.2-6c0.6,0,1.3,0.1,1.3,0.1v3c0,0-0.6-0.1-1.2-0.1c-5.1,0-7.2,5.7-7.2,10.2V54h3.5v2.5h-10.1V54z"/>
		<path fill="#5560AB" d="M342.7,36.4h-4v-2.5h4.1v-6.3h3v6.3h5.7v2.5h-5.7V48c0,5.3,3.4,6,5.1,6c0.6,0,1-0.1,1-0.1v2.7
			c0,0-0.5,0.1-1.3,0.1c-2.6,0-7.9-0.9-7.9-8.4V36.4z"/>
		<path fill="#5560AB" d="M359.1,36.4h-4v-2.5h7.1v13.6c0,3.6,0.5,6.7,5,6.7c5.1,0,8.3-4.7,8.3-9.6v-8.2h-4v-2.5h7.1v19.2
			c0,0.7,0.4,1,1,1h2.6v2.5h-3.8c-1.9,0-2.7-0.8-2.7-2.5v-1.1c0-0.9,0-1.6,0-1.6h-0.1c-0.6,1.7-3.4,5.8-9,5.8
			c-5.2,0-7.4-2.9-7.4-8.8V36.4z"/>
		<path fill="#5560AB" d="M387,54h3.5V37.4c0-0.7-0.4-1-1-1h-3.1v-2.5h4.3c1.9,0,2.7,0.8,2.7,2.6V38c0,0.9-0.1,1.7-0.1,1.7h0.1
			c1.1-3.4,3.6-6,7.2-6c0.6,0,1.3,0.1,1.3,0.1v3c0,0-0.6-0.1-1.2-0.1c-5.1,0-7.2,5.7-7.2,10.2V54h3.5v2.5H387V54z"/>
		<path fill="#5560AB" d="M414.3,33.4c6.3,0,9.5,4.8,9.5,10.4c0,0.5-0.1,1.4-0.1,1.4h-17.4c0.1,5.8,4.1,9.1,8.8,9.1
			c4.1,0,6.9-2.7,6.9-2.7l1.4,2.3c0,0-3.2,3.2-8.4,3.2c-6.7,0-11.8-4.9-11.8-11.8C403.2,37.8,408.2,33.4,414.3,33.4z M420.6,43
			c-0.2-4.8-3.1-7.1-6.4-7.1c-3.8,0-7.1,2.5-7.8,7.1H420.6z"/>
	</g>
	<g>
		<path fill="#CBE2A6" d="M39.1,17.6c2-13.4,11.5-16,18.4-16c10,0,17.8,5,17.8,15.5c0,9-7.5,12.5-15.2,15.4
			c-7.3,2.7-17.3,6.6-17.3,12.5L39.2,43c0-5.9-9.4-7.9-16.8-10.7C14.7,29.5,6.5,26,6.5,17.1c0-9.4,9.2-13.6,17.7-13.6
			c6.9,0,14.7,2.8,14.7,9.9l-0.6,4.1"/>
		<g>
			<path fill="#5560AB" d="M0,40.5h7v4.1c0,5.7,8.2,8.2,14.8,8.2c7.2,0,13.3-3.2,13.3-8.9c0-6.5-7.2-8.8-15.3-11.8
				c-8.6-3.2-17.6-7-17.6-16.9C2.1,4.7,12.3,0,21.7,0c7.7,0,18.8,3.3,18.8,11v6.5h-7v-4.2c0-4.2-5.6-6.8-11.6-6.8
				C15.7,6.6,10,9.4,10,14.9c0,6.2,6.9,8.8,14.3,11.5c8.8,3.2,18.5,6.9,18.5,17c0,9.8-8.8,16-21.4,16C10.9,59.4,0,54.7,0,46V40.5z"
				/>
		</g>
		<g>
			<path fill="#939598" d="M41.5,43.6c-0.9-2.6-3-4.1-9.2-6.7c-3.2-1.3-6.6-2.7-12.5-4.9c-8.6-3.2-17.6-7-17.6-16.9
				C2.1,4.8,12.3,0,21.7,0c7.7,0,18.8,3.3,18.8,11v6.5h-7v-4.2c0-4.2-5.6-6.8-11.6-6.8C15.7,6.7,10,9.4,10,14.9
				c0,6.2,6.9,8.8,14.3,11.5c8.8,3.2,18.5,6.9,18.5,17"/>
		</g>
		<g>
			<path fill="#5560AB" stroke="#5560AB" stroke-width="1.1269" stroke-miterlimit="10" d="M41.4,46.3h0.2c1.4-3.7,7.7-13,20.1-13
				c12.1,0,16.3,6.9,16.3,19.1v25.8h8.3v5.5h-15V54.2c0-7.7-1.3-14.6-10.8-14.6c-10.9,0-18.7,9.6-18.7,20.4v18.2h8.3v5.5H26.9v-5.5
				h8.3v-27"/>
		</g>
	</g>
</g>
</svg>
