<svg version="1.1"
	 xmlns="http://www.w3.org/2000/svg" xmlns:xlink="http://www.w3.org/1999/xlink"
	 x="0px" y="0px" width="373.9px" height="94.4px" viewBox="0 0 373.9 94.4" enable-background="new 0 0 373.9 94.4"
	 xml:space="preserve">
<defs>
</defs>
<g>
	<g>
		<path fill="#939598" d="M187,89.4c-0.2,0.6-0.3,1.1-0.3,1.5c0,0.3,0.1,0.6,0.2,0.7c0.1,0.2,0.3,0.2,0.5,0.3c0.2,0,0.4,0,0.6,0
			c0.2,0,0.5,0,0.7-0.1c0.2-0.1,0.4-0.2,0.5-0.3c0.1-0.1,0.3-0.3,0.4-0.5s0.1-0.4,0.1-0.6c0-0.2,0-0.4-0.1-0.5
			c-0.1-0.2-0.2-0.3-0.3-0.4c-0.1-0.1-0.3-0.3-0.4-0.4c-0.2-0.1-0.3-0.2-0.4-0.3l-1.5-1.2c-0.7-0.6-1.2-1.2-1.5-1.9
			c-0.3-0.7-0.4-1.5-0.2-2.5c0.2-1.1,0.8-1.9,1.8-2.5c1-0.6,2.2-0.9,3.8-0.9c1.6,0,2.6,0.4,3.2,1.2c0.6,0.8,0.7,1.9,0.3,3.4H191
			c0.2-0.8,0.2-1.4,0-1.7c-0.2-0.3-0.5-0.5-1.1-0.5c-0.4,0-0.7,0.1-1,0.3c-0.3,0.2-0.5,0.5-0.6,0.9c-0.1,0.4,0,0.7,0.2,1
			c0.2,0.2,0.4,0.4,0.7,0.7l2.3,1.8c0.2,0.1,0.4,0.3,0.6,0.5c0.2,0.2,0.4,0.5,0.5,0.7c0.2,0.3,0.3,0.5,0.4,0.8
			c0.1,0.3,0.1,0.5,0.1,0.8c0,0.6-0.2,1.2-0.4,1.8c-0.2,0.6-0.5,1.1-1,1.6c-0.4,0.5-1,0.9-1.7,1.1c-0.7,0.3-1.6,0.4-2.8,0.4
			c-0.3,0-0.6,0-0.9-0.1c-0.3,0-0.7-0.1-1-0.3c-0.3-0.1-0.6-0.3-0.9-0.5c-0.3-0.2-0.5-0.5-0.7-0.9c-0.2-0.4-0.2-0.8-0.3-1.3
			c0-0.5,0.1-1.1,0.3-1.8H187z"/>
		<path fill="#939598" d="M201.7,94.1c-0.6-0.3-1-0.7-1.3-1.2c-0.2-0.6-0.3-1.3-0.3-2.2c0.1-0.9,0.2-1.9,0.5-3.1
			c0.2-1.2,0.5-2.3,0.8-3.2c0.3-1,0.6-1.8,1.1-2.5c0.5-0.7,1.1-1.2,1.8-1.6s1.7-0.6,2.9-0.6c1.2,0,2.1,0.2,2.7,0.6s0.9,0.9,1.1,1.6
			s0.2,1.5,0,2.5c-0.1,1-0.3,2.1-0.6,3.2c-0.2,1.2-0.5,2.2-0.8,3.1c-0.3,0.9-0.7,1.6-1.1,2.2c-0.5,0.6-1,1-1.7,1.2
			c-0.7,0.3-1.6,0.4-2.6,0.4C203.2,94.4,202.3,94.3,201.7,94.1z M203.6,89.5c-0.1,0.4-0.2,0.8-0.2,1.1c0,0.3,0,0.6,0.1,0.8
			c0.1,0.2,0.2,0.3,0.4,0.4c0.2,0.1,0.5,0.1,0.9,0.1c0.4,0,0.7,0,0.9-0.1s0.4-0.2,0.6-0.4c0.1-0.2,0.3-0.5,0.4-0.8
			c0.1-0.3,0.2-0.7,0.3-1.1l1-4.7c0.1-0.3,0.1-0.7,0.2-1c0-0.3,0-0.6,0-0.8c0-0.2-0.2-0.5-0.4-0.6c-0.2-0.2-0.5-0.2-0.9-0.2
			c-0.4,0-0.8,0.1-1,0.2c-0.3,0.2-0.5,0.4-0.6,0.6s-0.3,0.5-0.4,0.8c-0.1,0.3-0.2,0.6-0.2,1L203.6,89.5z"/>
		<path fill="#939598" d="M217.3,94.1l3.8-18.6h3.2l-3.8,18.6H217.3z"/>
		<path fill="#939598" d="M235.3,92L235.3,92c-0.5,0.8-1,1.5-1.5,1.8c-0.6,0.4-1.2,0.6-2,0.6c-0.6,0-1.2-0.1-1.5-0.2
			s-0.6-0.4-0.8-0.7c-0.2-0.3-0.2-0.7-0.2-1.1c0-0.5,0.1-1,0.2-1.5l2.2-10.7h3.2l-2,9.6c-0.1,0.3-0.1,0.6-0.2,1c0,0.3,0,0.6,0.1,0.9
			c0.2,0.3,0.5,0.4,0.9,0.4c0.4,0,0.7-0.1,0.9-0.3c0.2-0.2,0.4-0.4,0.6-0.7c0.2-0.3,0.3-0.6,0.4-0.9s0.1-0.6,0.2-0.9l1.9-9.1h3.2
			l-2.9,14h-3.1L235.3,92z"/>
		<path fill="#939598" d="M250.9,94.1c-0.5,0-1,0.1-1.6,0.1c-0.5,0-1,0-1.5-0.1c-0.4-0.1-0.8-0.4-1-0.7s-0.3-0.8-0.1-1.5l2-9.5h-1.3
			l0.5-2.4h1.3l0.8-3.8h3.2l-0.8,3.8h1.4l-0.5,2.4h-1.4l-1.8,8.7c0,0.1,0,0.3,0.1,0.3s0.2,0.1,0.3,0.1c0.1,0,0.3,0,0.4,0
			c0.1,0,0.3,0,0.4,0L250.9,94.1z"/>
		<path fill="#939598" d="M258.3,94.1l2.9-14h3.2l-2.9,14H258.3z M261.6,78.4l0.6-2.9h3.2l-0.6,2.9H261.6z"/>
		<path fill="#939598" d="M272,94.1c-0.6-0.3-1-0.7-1.3-1.2c-0.2-0.6-0.3-1.3-0.3-2.2c0.1-0.9,0.2-1.9,0.5-3.1
			c0.2-1.2,0.5-2.3,0.8-3.2c0.3-1,0.6-1.8,1.1-2.5c0.5-0.7,1.1-1.2,1.8-1.6s1.7-0.6,2.9-0.6c1.2,0,2.1,0.2,2.7,0.6s0.9,0.9,1.1,1.6
			s0.2,1.5,0,2.5c-0.1,1-0.3,2.1-0.6,3.2c-0.2,1.2-0.5,2.2-0.8,3.1c-0.3,0.9-0.7,1.6-1.1,2.2c-0.5,0.6-1,1-1.7,1.2
			c-0.7,0.3-1.6,0.4-2.6,0.4C273.4,94.4,272.6,94.3,272,94.1z M273.8,89.5c-0.1,0.4-0.2,0.8-0.2,1.1c0,0.3,0,0.6,0.1,0.8
			c0.1,0.2,0.2,0.3,0.4,0.4c0.2,0.1,0.5,0.1,0.9,0.1c0.4,0,0.7,0,0.9-0.1s0.4-0.2,0.6-0.4c0.1-0.2,0.3-0.5,0.4-0.8
			c0.1-0.3,0.2-0.7,0.3-1.1l1-4.7c0.1-0.3,0.1-0.7,0.2-1c0-0.3,0-0.6,0-0.8c0-0.2-0.2-0.5-0.4-0.6c-0.2-0.2-0.5-0.2-0.9-0.2
			c-0.4,0-0.8,0.1-1,0.2c-0.3,0.2-0.5,0.4-0.6,0.6s-0.3,0.5-0.4,0.8c-0.1,0.3-0.2,0.6-0.2,1L273.8,89.5z"/>
		<path fill="#939598" d="M293.1,81.5L293.1,81.5c0.3-0.4,0.6-0.7,0.9-1c0.3-0.2,0.6-0.4,0.9-0.5c0.3-0.1,0.6-0.2,0.8-0.2
			c0.3,0,0.5-0.1,0.7-0.1c0.5,0,0.9,0.1,1.3,0.2c0.4,0.1,0.7,0.4,0.9,0.6s0.4,0.7,0.4,1.1c0.1,0.4,0,1-0.1,1.6l-2.2,10.8h-3.2
			l1.9-9.3c0.1-0.3,0.1-0.7,0.1-0.9c0-0.3,0-0.5,0-0.7c-0.1-0.2-0.2-0.4-0.3-0.5c-0.2-0.1-0.4-0.2-0.7-0.2c-0.3,0-0.6,0-0.8,0.2
			c-0.2,0.1-0.4,0.3-0.6,0.5c-0.2,0.2-0.3,0.5-0.4,0.8s-0.2,0.7-0.3,1l-1.9,9.1h-3.2l2.9-14h3.2L293.1,81.5z"/>
		<path fill="#939598" d="M308,89.4c-0.2,0.6-0.3,1.1-0.3,1.5c0,0.3,0.1,0.6,0.2,0.7c0.1,0.2,0.3,0.2,0.5,0.3c0.2,0,0.4,0,0.6,0
			c0.2,0,0.5,0,0.7-0.1c0.2-0.1,0.4-0.2,0.5-0.3c0.1-0.1,0.3-0.3,0.4-0.5s0.1-0.4,0.1-0.6c0-0.2,0-0.4-0.1-0.5
			c-0.1-0.2-0.2-0.3-0.3-0.4c-0.1-0.1-0.3-0.3-0.4-0.4c-0.2-0.1-0.3-0.2-0.4-0.3l-1.5-1.2c-0.7-0.6-1.2-1.2-1.5-1.9
			c-0.3-0.7-0.4-1.5-0.2-2.5c0.2-1.1,0.8-1.9,1.8-2.5c1-0.6,2.2-0.9,3.8-0.9c1.6,0,2.6,0.4,3.2,1.2c0.6,0.8,0.7,1.9,0.3,3.4h-3.2
			c0.2-0.8,0.2-1.4,0-1.7c-0.2-0.3-0.5-0.5-1.1-0.5c-0.4,0-0.7,0.1-1,0.3c-0.3,0.2-0.5,0.5-0.6,0.9c-0.1,0.4,0,0.7,0.2,1
			c0.2,0.2,0.4,0.4,0.7,0.7l2.3,1.8c0.2,0.1,0.4,0.3,0.6,0.5c0.2,0.2,0.4,0.5,0.5,0.7c0.2,0.3,0.3,0.5,0.4,0.8
			c0.1,0.3,0.1,0.5,0.1,0.8c0,0.6-0.2,1.2-0.4,1.8c-0.2,0.6-0.5,1.1-1,1.6c-0.4,0.5-1,0.9-1.7,1.1c-0.7,0.3-1.6,0.4-2.8,0.4
			c-0.3,0-0.6,0-0.9-0.1c-0.3,0-0.7-0.1-1-0.3c-0.3-0.1-0.6-0.3-0.9-0.5c-0.3-0.2-0.5-0.5-0.7-0.9c-0.2-0.4-0.2-0.8-0.3-1.3
			c0-0.5,0.1-1.1,0.3-1.8H308z"/>
	</g>
</g>
<linearGradient id="SVGID_1_" gradientUnits="userSpaceOnUse" x1="47.421" y1="83.5691" x2="47.421" y2="13.6022">
	<stop  offset="0" style="stop-color:#FFFFFF;stop-opacity:0"/>
	<stop  offset="0.141" style="stop-color:#FDE6CB;stop-opacity:0.141"/>
	<stop  offset="0.3018" style="stop-color:#FBCD97;stop-opacity:0.3018"/>
	<stop  offset="0.4599" style="stop-color:#FAB96B;stop-opacity:0.4599"/>
	<stop  offset="0.6118" style="stop-color:#F9A94A;stop-opacity:0.6118"/>
	<stop  offset="0.7559" style="stop-color:#F89D32;stop-opacity:0.7559"/>
	<stop  offset="0.8888" style="stop-color:#F79623;stop-opacity:0.8888"/>
	<stop  offset="1" style="stop-color:#F7941E"/>
</linearGradient>
<path fill="url(#SVGID_1_)" d="M62.3,13.6c-16.9,3.3-29.7,18.3-29.7,36.2c0,15,9.1,28.1,22.2,33.8C45.7,75.7,40,64.1,40,51.2
	C40,35,49,20.9,62.3,13.6z"/>
<g>
	<linearGradient id="SVGID_2_" gradientUnits="userSpaceOnUse" x1="32.4601" y1="94.0517" x2="32.4601" y2="-6.539267e-10">
		<stop  offset="0" style="stop-color:#FFFFFF;stop-opacity:0"/>
		<stop  offset="4.496652e-02" style="stop-color:#EBF9FE;stop-opacity:4.496652e-02"/>
		<stop  offset="0.1982" style="stop-color:#AEE5FA;stop-opacity:0.1982"/>
		<stop  offset="0.3503" style="stop-color:#79D4F7;stop-opacity:0.3503"/>
		<stop  offset="0.4975" style="stop-color:#4DC7F4;stop-opacity:0.4975"/>
		<stop  offset="0.6389" style="stop-color:#2CBCF2;stop-opacity:0.6389"/>
		<stop  offset="0.7729" style="stop-color:#14B4F0;stop-opacity:0.7729"/>
		<stop  offset="0.8965" style="stop-color:#05B0EF;stop-opacity:0.8965"/>
		<stop  offset="1" style="stop-color:#00AEEF"/>
	</linearGradient>
	<path fill="url(#SVGID_2_)" d="M21,70.1c-3.9-6.4-6.2-13.9-6.2-22c0-8.1,2.3-15.6,6.2-22C28.7,12.5,43.3,3.3,60.1,3.3
		c1.6,0,3.2,0.1,4.8,0.3C59.4,1.3,53.4,0,47,0C21.1,0,0,21.1,0,47s21.1,47,47,47c3.5,0,6.9-0.4,10.2-1.1C41.7,91.9,28.2,83,21,70.1z
		"/>
</g>
<linearGradient id="SVGID_3_" gradientUnits="userSpaceOnUse" x1="49.3247" y1="90.0575" x2="49.3247" y2="6.2037">
	<stop  offset="0" style="stop-color:#FFFFFF;stop-opacity:0"/>
	<stop  offset="7.533646e-02" style="stop-color:#E6F6E8;stop-opacity:7.533646e-02"/>
	<stop  offset="0.2486" style="stop-color:#B2E2B8;stop-opacity:0.2486"/>
	<stop  offset="0.4187" style="stop-color:#86D291;stop-opacity:0.4187"/>
	<stop  offset="0.5822" style="stop-color:#65C572;stop-opacity:0.5822"/>
	<stop  offset="0.7372" style="stop-color:#4DBC5C;stop-opacity:0.7372"/>
	<stop  offset="0.8803" style="stop-color:#3EB74F;stop-opacity:0.8803"/>
	<stop  offset="1" style="stop-color:#39B54A"/>
</linearGradient>
<path fill="url(#SVGID_3_)" d="M29.6,49.8c0-22,17.8-39.8,39.8-39.8c3.8,0,7.6,0.5,11.1,1.6c-6-3.4-13-5.3-20.4-5.3
	C36.9,6.2,18.2,25,18.2,48.1c0,23.2,18.8,41.9,41.9,41.9c2.4,0,4.7-0.2,6.9-0.6C46.1,88.2,29.6,70.9,29.6,49.8z"/>
<g>
	<path d="M91.9,63c-1.8,2.1-3.9,3.8-6.3,5.2c-2.4,1.4-5.2,2.1-8.5,2.2c-4.9,0-9.1-1.7-12.8-5.1c-3.8-3.4-5.8-8.9-5.9-16.6
		c0.1-7.7,2.1-13.3,5.9-16.8c3.7-3.4,7.9-5.1,12.8-5c3.2,0.1,6,0.7,8.4,2c2.4,1.3,4.5,3.1,6.3,5.4l-6.1,5.6
		c-2.1-2.9-4.9-4.4-8.4-4.5c-7-0.1-10.6,4.3-10.7,13.3c0.1,8.9,3.7,13.3,10.7,13.2c3.5-0.1,6.3-1.5,8.4-4.4L91.9,63z"/>
	<path d="M120.4,66h-0.2c-0.8,1.4-2,2.5-3.6,3.2c-1.6,0.7-3.8,1.1-6.6,1.1c-4.6-0.1-8.1-1.3-10.6-3.8c-2.6-2.4-3.9-5.5-3.9-9.2
		c0-3.6,1.1-6.5,3.4-8.9c2.3-2.4,5.6-3.6,10-3.7h11.5v-4.5c0.1-3.8-2.8-5.6-8.4-5.5c-2.1,0-3.7,0.2-4.9,0.7
		c-1.2,0.5-2.2,1.4-2.9,2.6l-6.5-5.1c3.1-4.2,7.8-6.3,13.9-6.2c5.2-0.1,9.3,1,12.4,3c3.1,2.1,4.7,5.8,4.7,11v29h-8.3V66z
		 M120.4,51.8h-9.9c-4.8,0.1-7.2,1.8-7.1,5.1c0,1.4,0.6,2.7,1.9,3.7c1.2,1.1,3.2,1.7,5.9,1.7c3.5,0.1,5.9-0.4,7.3-1.3
		c1.3-0.9,1.9-2.9,1.9-6.1V51.8z"/>
	<path d="M140.7,10.1h8.3v48.8c0,1.9,1,2.9,3.1,2.9h2.9v8h-3.7c-3,0-5.5-0.8-7.5-2.3c-2.1-1.6-3.1-4.2-3.1-8V10.1z"/>
	<path d="M162.3,10.1h8.3v48.8c0,1.9,1,2.9,3.1,2.9h2.9v8h-3.7c-3,0-5.5-0.8-7.5-2.3c-2.1-1.6-3.1-4.2-3.1-8V10.1z"/>
	<path d="M184.2,10.1h8.3v8.5h-8.3V10.1z M184.2,27.3h8.3v42.5h-8.3V27.3z"/>
	<path d="M204.1,10.1h8.3v21.7c1.5-1.5,3.2-2.7,5-3.7c1.7-0.9,3.6-1.4,5.7-1.4c5,0.1,8.7,2,11.1,5.6c1.1,1.3,1.9,3.1,2.3,5.3
		c0.4,2.2,0.6,5.8,0.6,10.9c0,5-0.2,8.6-0.6,10.8c-0.4,2.3-1.2,4.1-2.3,5.4c-1.1,1.6-2.6,2.9-4.5,3.9c-1.8,1-4,1.5-6.6,1.6
		c-4.3-0.1-7.9-1.8-10.6-4.9v4.4h-8.3V10.1z M220.4,35.3c-1.9,0-3.3,0.4-4.4,1.2c-1.1,0.8-2,1.8-2.5,3.1c-0.5,1.3-0.8,2.7-1,4.2
		c-0.2,1.5-0.2,3.1-0.2,4.7c0,1.5,0.1,3,0.2,4.6c0.2,1.6,0.5,3,1,4.3c0.5,1.3,1.4,2.3,2.5,3.1c1.1,0.8,2.6,1.2,4.4,1.2
		c2,0,3.5-0.4,4.6-1.1c1.1-0.8,1.9-1.8,2.4-3c0.5-1.3,0.9-2.7,1.1-4.4c0.1-1.5,0.1-3.1,0.1-4.7c0-1.7,0-3.4-0.1-5
		c-0.2-1.5-0.5-2.9-1.1-4.2c-0.5-1.3-1.3-2.3-2.4-3C224,35.6,222.4,35.3,220.4,35.3z"/>
	<path d="M247.6,27.3h8.3v4.5h0.2c2.7-3.4,6.3-5,10.7-5c3.3,0.1,6.2,1.1,8.6,3.3l-6,7.4c-1.7-1.4-3.6-2.1-5.4-2.1
		c-2.1,0-3.9,0.7-5.4,2.1c-1.7,1.4-2.6,3.6-2.6,6.8v25.6h-8.3V27.3z"/>
	<path d="M280.5,10.1h8.3v8.5h-8.3V10.1z M280.5,27.3h8.3v42.5h-8.3V27.3z"/>
	<path d="M300.8,14.4h8.3v12.9h6v6.5h-6v24.8c-0.1,2.2,0.9,3.2,2.9,3.2h3.1v8h-4.3c-2.9,0-5.3-0.9-7.1-2.8c-1.9-1.8-2.9-4.3-2.9-7.7
		V33.8h-4.1v-6.5h4.1V14.4z"/>
	<path d="M317.7,27.3h8.8l9.7,29.8h0.2l9.7-29.8h8.8l-17.7,51.3c-1.1,3.2-2.7,5.4-4.7,6.6c-2,1.2-4.3,1.8-6.9,1.8h-2.7v-8h2.4
		c1.1,0,2.1-0.3,3-0.9c0.9-0.6,1.6-1.6,1.9-2.8l2.3-7.1L317.7,27.3z"/>
</g>
<g>
	<g>
		<path d="M360.5,18.9h5.5v1h-2.2v5.8h-1.2v-5.8h-2.2V18.9z"/>
		<path d="M366.8,18.9h1.7l1.9,5.3h0l1.8-5.3h1.7v6.8h-1.1v-5.3h0l-1.9,5.3h-1l-1.9-5.3h0v5.3h-1.1V18.9z"/>
	</g>
</g>
</svg>
