<svg version="1.1"
	 xmlns="http://www.w3.org/2000/svg" xmlns:xlink="http://www.w3.org/1999/xlink" 
	 x="0px" y="0px" width="182.5px" height="83px" viewBox="0 0 182.5 83" enable-background="new 0 0 182.5 83" xml:space="preserve"
	>
<defs>
</defs>
<g>
	<g>
		<path fill="#68BDB6" d="M178.2,11.1V4.1l-1-0.4c-0.3-0.1-8.5-3.3-19.3-3.3C146.2,0.5,136.2,4,128,11c-8.1-7-18.2-10.5-29.8-10.5
			c-10.9,0-19,3.2-19.3,3.3l-1,0.4v6.4c-3.3,0.6-5.3,1.7-5.3,3.5c0,9.4,0,66.1,0,66.1h48.7c1.7,1.5,4.1,2.5,6.9,2.5
			c2.8,0,5.2-1,6.9-2.5h47.5c0,0,0-62.8,0-66.1C182.5,12.6,180.8,11.7,178.2,11.1z M127.5,75c-4-1.7-18-7-31.9-7
			c-5.5,0-10.4,0.8-14.5,2.5V6.3c2.4-0.8,9-2.7,17.2-2.7c10.7,0,19.9,3.2,27.4,9.6v38.3l1.9-2C127.5,49.4,127.5,75,127.5,75z
			 M175,70.5c-4.5-1.8-9.6-2.7-15.3-2.7c-13.9,0-27.2,5.3-31.2,7.1V49.4l1.9,2V13.2c7.5-6.3,16.7-9.6,27.4-9.6
			c8.1,0,14.8,1.9,17.2,2.7C175,6.3,175,70.5,175,70.5z"/>
		<path fill="#68BDB6" d="M87.3,14.8l0.7,2.5c16.4-4.4,31.2,3.7,31.4,3.8l1.2-2.2C119.9,18.5,104.7,10.2,87.3,14.8z"/>
		<path fill="#68BDB6" d="M87.3,22l0.7,2.5c16.4-4.4,31.2,3.7,31.4,3.8l1.2-2.2C119.9,25.7,104.7,17.4,87.3,22z"/>
		<path fill="#68BDB6" d="M87.3,28.8l0.7,2.5c16.4-4.4,31.2,3.7,31.4,3.8l1.2-2.2C119.9,32.5,104.7,24.2,87.3,28.8z"/>
		<path fill="#68BDB6" d="M87.3,36.3l0.7,2.5c16.4-4.4,31.2,3.7,31.4,3.8l1.2-2.2C119.9,39.9,104.7,31.6,87.3,36.3z"/>
		<path fill="#68BDB6" d="M87.3,43.2l0.7,2.5c16.4-4.4,31.2,3.7,31.4,3.8l1.2-2.2C119.9,46.8,104.7,38.5,87.3,43.2z"/>
		<path fill="#68BDB6" d="M87.3,50.3l0.7,2.5c16.4-4.4,31.2,3.7,31.4,3.8l1.2-2.2C119.9,53.9,104.7,45.6,87.3,50.3z"/>
		<path fill="#68BDB6" d="M87.3,57.4l0.7,2.5c16.4-4.4,31.2,3.7,31.4,3.8l1.2-2.2C119.9,61,104.7,52.7,87.3,57.4z"/>
		<path fill="#68BDB6" d="M137.5,21.2c0.2-0.1,14.9-8.1,31.4-3.8l0.7-2.5c-17.5-4.6-32.6,3.7-33.3,4L137.5,21.2z"/>
		<path fill="#68BDB6" d="M136.2,26.2l1.2,2.2c0.2-0.1,14.9-8.2,31.4-3.8l0.7-2.5C152,17.6,136.9,25.9,136.2,26.2z"/>
		<path fill="#68BDB6" d="M136.2,33l1.2,2.2c0.2-0.1,14.9-8.2,31.4-3.8l0.7-2.5C152,24.4,136.9,32.7,136.2,33z"/>
		<path fill="#68BDB6" d="M136.2,40.5l1.2,2.2c0.2-0.1,14.9-8.1,31.4-3.8l0.7-2.5C152,31.8,136.9,40.1,136.2,40.5z"/>
		<path fill="#68BDB6" d="M136.2,47.4l1.2,2.2c0.2-0.1,14.9-8.2,31.4-3.8l0.7-2.5C152,38.7,136.9,47,136.2,47.4z"/>
		<path fill="#68BDB6" d="M136.2,54.5l1.2,2.2c0.2-0.1,14.9-8.1,31.4-3.8l0.7-2.5C152,45.8,136.9,54.1,136.2,54.5z"/>
		<path fill="#68BDB6" d="M136.2,61.6l1.2,2.2c0.2-0.1,14.9-8.2,31.4-3.8l0.7-2.5C152,52.9,136.9,61.2,136.2,61.6z"/>
	</g>
</g>
<g>
	<path fill="#68BDB6" d="M60.1,72.1c-4.1,0-5.9,1.6-6.5,2.2v8.3h14.1v-7v-1.2C66.6,73.6,64.1,72.1,60.1,72.1z M67.7,17.9H53.6v6.2
		c0.6,0.7,2.4,2.2,6.5,2.2c3.9,0,6.4-1.4,7.6-2.3V17.9z M60.1,29.9c-3.2,0-5.2-0.9-6.5-1.8v42.3c1.3-0.9,3.3-1.8,6.5-1.8
		c3.5,0,6,1,7.6,2V27.9C66.1,28.8,63.6,29.9,60.1,29.9z M14.8,8.6l12,2.5l1.8-8.6L16.5,0L14.8,8.6z M14.1,12l12,2.5l-12,58.3
		l-12-2.5L14.1,12z M9.4,66.1c2.3,0.5,4.7-1.5,5.3-4.5c0.6-3-0.8-5.7-3.1-6.2c-2.3-0.5-4.7,1.5-5.3,4.5C5.7,62.9,7,65.6,9.4,66.1z
		 M0,80.6L12,83l1.4-6.9l-12-2.5L0,80.6z M48.4,0.4H30.9v8.8h17.5V0.4z M48.4,75.6H30.9v7h17.5V75.6z M48.4,21.4H30.9v42h17.5V21.4z
		 M48.4,66.9H30.9v5.2h17.5V66.9z M48.4,12.6H30.9v5.2h17.5V12.6z"/>
</g>
</svg>
