<svg version="1.1"
	 xmlns="http://www.w3.org/2000/svg" xmlns:xlink="http://www.w3.org/1999/xlink" 
	 x="0px" y="0px" width="921px" height="679.8px" viewBox="0 0 921 679.8" enable-background="new 0 0 921 679.8"
	 xml:space="preserve">
<defs>
</defs>
<g>
	<g>
		<path fill="#68BDB6" d="M280.9,679.8c56,0,109.5-16.3,155.1-46.6c-6.2-5.4-12.2-11.1-18.1-17.1c-13.3-13.6-25.2-28.3-35.7-43.8
			c-29.8,17.5-64.4,27.5-101.4,27.5C170.1,599.8,80,509.7,80,399c0-85.2,53.4-158.2,128.4-187.3l-57.9-61.6
			c-24.9,13-47.9,29.9-68.3,50.3C29.2,253.4,0,323.9,0,398.9s29.2,145.5,82.2,198.5C135.3,650.6,205.9,679.8,280.9,679.8z"/>
		<path fill="#68BDB6" d="M537.2,226.8c30.2-18.1,65.4-28.6,103.1-28.6c110.7,0,200.8,90.1,200.8,200.8S751,599.8,640.3,599.8
			c-50.6,0-100.7-19.9-137.6-54.6c-39.9-37.6-63.2-91.4-63.2-146.2c0-17.5,2.3-34.6,6.5-50.8c-4.4-14.4-10.7-28.1-18.7-41
			c-9.6-15.2-21.4-28.8-35-40.3c-21.4,40.2-32.8,85.2-32.8,132c0,80.9,36.1,159.9,97.5,212.7c48.6,41.9,111.9,66.3,176,68
			c2.4,0.1,4.8,0.1,7.3,0.1c75,0,145.5-29.2,198.5-82.2S921,474,921,399s-29.2-145.5-82.2-198.5s-123.5-82.2-198.5-82.2
			c-56.7,0-110.8,16.7-156.8,47.8C503.9,183.7,522,204.2,537.2,226.8z"/>
		<path fill="#68BDB6" d="M449.3,174.5c-12-9.1-24.8-17.3-38.3-24.3l-57.7,61.5c1.7,0.7,3.5,1.4,5.2,2.1
			c42.3,17.8,78,50.2,99.6,90.7c23.2,43.5,29.6,95.4,17.7,143.2l6.3,15.5c10.4,25.5,27,48.2,47.8,66c16.6-31.6,26.9-66.1,30.5-102.1
			c0.9-9.3,1.4-18.7,1.4-28C561.7,311.3,518.5,227.1,449.3,174.5z"/>
		<path fill="#68BDB6" d="M262.6,228.4c4.9,5.2,11.6,7.9,18.2,7.9c6.6,0,13.3-2.6,18.2-7.9l24.2-25.7L423.7,95.9
			c7.8-8.3,9-20.9,2.9-30.5l-34.2-53.8C387.8,4.4,379.9,0,371.3,0H190.5C182,0,174,4.4,169.4,11.6l-34.2,53.8
			c-6.1,9.6-5,22.2,2.9,30.5L262.6,228.4z"/>
	</g>
</g>
</svg>
