<svg version="1.1"
	 xmlns="http://www.w3.org/2000/svg" xmlns:xlink="http://www.w3.org/1999/xlink" 
	 x="0px" y="0px" width="612px" height="508.7px" viewBox="0 0 612 508.7" enable-background="new 0 0 612 508.7"
	 xml:space="preserve">
<defs>
</defs>
<g>
	<g>
		<g>
			<path fill="#68BDB6" d="M461.1,168.9C461.1,75.7,358,0,230.6,0C103.2,0,0,75.7,0,168.9c0,57.4,39.3,107.9,99,138.4L41.8,416.2
				L166,330.3c20.6,4.4,42.1,7.6,64.7,7.6C358,337.9,461.1,262.3,461.1,168.9z M158.2,187.3h-48.7v-48.7h48.7V187.3z M306,138.5
				h48.7v48.7H306V138.5z M207.7,138.5h48.7v48.7h-48.7V138.5z"/>
			<path fill="#68BDB6" d="M612,275.2c0-61.3-47.2-114.4-116.4-141.2c3.4,12.6,5.3,25.6,5.3,39.1c0,110.5-122.1,200.2-273,200.2
				c-1.9,0-3.6-0.4-5.4-0.4c39.8,37.6,101.9,61.8,171.8,61.8c21.3,0,41.6-3,61.1-7.1l117.3,81l-54.1-102.7
				C574.9,377,612,329.4,612,275.2z"/>
		</g>
	</g>
</g>
</svg>
