<svg version="1.1"
	 xmlns="http://www.w3.org/2000/svg" xmlns:xlink="http://www.w3.org/1999/xlink"
	 x="0px" y="0px" width="378.5px" height="145.1px" viewBox="0 0 378.5 145.1" enable-background="new 0 0 378.5 145.1"
	 xml:space="preserve">
<defs>
</defs>
<path fill="#454545" d="M36,0C16.1,0,0,16.1,0,35.9c0,19.8,16.1,35.9,36,35.9c19.8,0,36-16.1,36-35.9C72,16.1,55.8,0,36,0z
	 M59.8,16.5c4.3,5.2,6.9,11.9,6.9,19.1c-1-0.2-11.2-2.3-21.4-1c-0.2-0.5-0.4-1.1-0.7-1.6c-0.6-1.5-1.3-3-2-4.4
	C54,24,59.1,17.4,59.8,16.5z M36,5.2c7.8,0,15,2.9,20.4,7.7c-0.6,0.8-5.2,7-16.1,11.1c-5-9.2-10.6-16.8-11.5-18
	C31.1,5.5,33.5,5.2,36,5.2z M22.9,8.2c0.8,1.1,6.3,8.7,11.4,17.8c-14.4,3.8-27,3.8-28.4,3.7C7.9,20.1,14.3,12.2,22.9,8.2z M5.3,35.9
	c0-0.3,0-0.6,0-0.9c1.3,0,16.2,0.2,31.6-4.4c0.9,1.7,1.7,3.5,2.5,5.2c-0.4,0.1-0.8,0.2-1.2,0.4c-15.9,5.1-24.3,19.1-25,20.3
	C8.2,51,5.3,43.8,5.3,35.9z M36,66.6c-7.1,0-13.7-2.4-18.9-6.5C17.7,59,23.9,47,41.2,41c0.1,0,0.1,0,0.2-0.1
	c4.3,11.2,6.1,20.6,6.6,23.3C44.3,65.8,40.3,66.6,36,66.6z M53.2,61.4c-0.3-1.9-2-10.9-6-21.9c9.6-1.5,18.1,1,19.2,1.3
	C65,49.4,60.1,56.7,53.2,61.4z"/>
<path fill="#454545" d="M160.2,8.7c-3.2,1.4-6.7,2.4-10.4,2.9c3.7-2.2,6.6-5.8,8-10c-3.5,2.1-7.4,3.6-11.5,4.4
	c-3.3-3.5-8-5.7-13.2-5.7c-10,0-18.1,8.1-18.1,18.1c0,1.4,0.2,2.8,0.5,4.1c-15-0.8-28.4-8-37.3-18.9c-1.6,2.7-2.5,5.8-2.5,9.1
	c0,6.3,3.2,11.8,8.1,15.1c-3-0.1-5.8-0.9-8.2-2.3c0,0.1,0,0.2,0,0.2c0,8.8,6.2,16.1,14.5,17.7c-1.5,0.4-3.1,0.6-4.8,0.6
	c-1.2,0-2.3-0.1-3.4-0.3c2.3,7.2,9,12.4,16.9,12.6c-6.2,4.9-14,7.7-22.5,7.7c-1.5,0-2.9-0.1-4.3-0.3c8,5.1,17.5,8.1,27.7,8.1
	c33.3,0,51.5-27.6,51.5-51.5c0-0.8,0-1.6-0.1-2.3C154.7,15.5,157.8,12.3,160.2,8.7z"/>
<path fill="#454545" d="M161.4,23.9h14.9v48h-14.9V23.9z M168.9,0c4.8,0,8.7,3.9,8.7,8.7c0,4.8-3.9,8.7-8.7,8.7
	c-4.8,0-8.7-3.9-8.7-8.7C160.2,3.9,164.1,0,168.9,0"/>
<path fill="#454545" d="M185.7,23.9H200v6.6h0.2c2-3.8,6.9-7.8,14.1-7.8c15.1,0,17.9,9.9,17.9,22.9v26.3h-14.9V48.5
	c0-5.6-0.1-12.7-7.8-12.7c-7.8,0-9,6.1-9,12.3v23.8h-14.9V23.9z"/>
<path fill-rule="evenodd" clip-rule="evenodd" fill="#454545" d="M269.2,0c-20.4,0-36.9,16.5-36.9,36.9c0,16.3,10.6,30.1,25.2,35
	c1.8,0.3,2.5-0.8,2.5-1.8c0-0.9,0-3.2,0-6.3c-10.3,2.2-12.4-4.9-12.4-4.9c-1.7-4.3-4.1-5.4-4.1-5.4c-3.4-2.3,0.3-2.2,0.3-2.2
	c3.7,0.3,5.7,3.8,5.7,3.8c3.3,5.6,8.6,4,10.7,3.1c0.3-2.4,1.3-4,2.3-4.9c-8.2-0.9-16.8-4.1-16.8-18.2c0-4,1.4-7.3,3.8-9.9
	c-0.4-0.9-1.6-4.7,0.4-9.8c0,0,3.1-1,10.2,3.8c2.9-0.8,6.1-1.2,9.2-1.2c3.1,0,6.3,0.4,9.2,1.2c7-4.8,10.1-3.8,10.1-3.8
	c2,5.1,0.7,8.8,0.4,9.8c2.4,2.6,3.8,5.9,3.8,9.9c0,14.2-8.6,17.3-16.9,18.2c1.3,1.1,2.5,3.4,2.5,6.8c0,4.9,0,8.9,0,10.1
	c0,1,0.7,2.1,2.5,1.8c14.7-4.9,25.2-18.7,25.2-35C306.1,16.5,289.5,0,269.2,0z"/>
<g>
	<path fill="#454545" d="M378.5,18.6V6.9c0-3.7-3-6.7-6.7-6.7h-59c-3.7,0-6.7,3-6.7,6.7v11.8l36.2,13.8L378.5,18.6z"/>
	<path fill="#454545" d="M342.3,39.3L342.3,39.3L342.3,39.3l-36.2-13.8v40.3c0,3.7,3,6.7,6.7,6.7h59c3.7,0,6.7-3,6.7-6.7V25.5
		L342.3,39.3z"/>
</g>
<path fill="#C32261" d="M36,72.6c-19.8,0-36,16.1-36,35.9c0,19.8,16.1,35.9,36,35.9c19.8,0,36-16.1,36-35.9
	C72,88.7,55.8,72.6,36,72.6z M59.8,89.1c4.3,5.2,6.9,11.9,6.9,19.1c-1-0.2-11.2-2.3-21.4-1c-0.2-0.5-0.4-1.1-0.7-1.6
	c-0.6-1.5-1.3-3-2-4.4C54,96.6,59.1,90,59.8,89.1z M36,77.8c7.8,0,15,2.9,20.4,7.7c-0.6,0.8-5.2,7-16.1,11.1
	c-5-9.2-10.6-16.8-11.5-18C31.1,78.1,33.5,77.8,36,77.8z M22.9,80.7c0.8,1.1,6.3,8.7,11.4,17.8c-14.4,3.8-27,3.8-28.4,3.7
	C7.9,92.7,14.3,84.8,22.9,80.7z M5.3,108.5c0-0.3,0-0.6,0-0.9c1.3,0,16.2,0.2,31.6-4.4c0.9,1.7,1.7,3.5,2.5,5.2
	c-0.4,0.1-0.8,0.2-1.2,0.4c-15.9,5.1-24.3,19.1-25,20.3C8.2,123.6,5.3,116.4,5.3,108.5z M36,139.2c-7.1,0-13.7-2.4-18.9-6.5
	c0.6-1.1,6.8-13.1,24.1-19.2c0.1,0,0.1,0,0.2-0.1c4.3,11.2,6.1,20.6,6.6,23.3C44.3,138.3,40.3,139.2,36,139.2z M53.2,134
	c-0.3-1.9-2-10.9-6-21.9c9.6-1.5,18.1,1,19.2,1.3C65,121.9,60.1,129.3,53.2,134z"/>
<path fill="#5FA9DD" d="M160.2,81.2c-3.2,1.4-6.7,2.4-10.4,2.9c3.7-2.2,6.6-5.8,8-10c-3.5,2.1-7.4,3.6-11.5,4.4
	c-3.3-3.5-8-5.7-13.2-5.7c-10,0-18.1,8.1-18.1,18.1c0,1.4,0.2,2.8,0.5,4.1c-15-0.8-28.4-8-37.3-18.9c-1.6,2.7-2.5,5.8-2.5,9.1
	c0,6.3,3.2,11.8,8.1,15.1c-3-0.1-5.8-0.9-8.2-2.3c0,0.1,0,0.2,0,0.2c0,8.8,6.2,16.1,14.5,17.7c-1.5,0.4-3.1,0.6-4.8,0.6
	c-1.2,0-2.3-0.1-3.4-0.3c2.3,7.2,9,12.4,16.9,12.6c-6.2,4.9-14,7.7-22.5,7.7c-1.5,0-2.9-0.1-4.3-0.3c8,5.1,17.5,8.1,27.7,8.1
	c33.3,0,51.5-27.6,51.5-51.5c0-0.8,0-1.6-0.1-2.3C154.7,88.1,157.8,84.9,160.2,81.2z"/>
<path fill="#017BB6" d="M161.4,96.4h14.9v48h-14.9V96.4z M168.9,72.6c4.8,0,8.7,3.9,8.7,8.7c0,4.8-3.9,8.7-8.7,8.7
	c-4.8,0-8.7-3.9-8.7-8.7C160.2,76.4,164.1,72.6,168.9,72.6"/>
<path fill="#017BB6" d="M185.7,96.4H200v6.6h0.2c2-3.8,6.9-7.8,14.1-7.8c15.1,0,17.9,9.9,17.9,22.9v26.3h-14.9v-23.4
	c0-5.6-0.1-12.7-7.8-12.7c-7.8,0-9,6.1-9,12.3v23.8h-14.9V96.4z"/>
<path fill-rule="evenodd" clip-rule="evenodd" d="M269.2,72.6c-20.4,0-36.9,16.5-36.9,36.9c0,16.3,10.6,30.1,25.2,35
	c1.8,0.3,2.5-0.8,2.5-1.8c0-0.9,0-3.2,0-6.3c-10.3,2.2-12.4-4.9-12.4-4.9c-1.7-4.3-4.1-5.4-4.1-5.4c-3.4-2.3,0.3-2.2,0.3-2.2
	c3.7,0.3,5.7,3.8,5.7,3.8c3.3,5.6,8.6,4,10.7,3.1c0.3-2.4,1.3-4,2.3-4.9c-8.2-0.9-16.8-4.1-16.8-18.2c0-4,1.4-7.3,3.8-9.9
	c-0.4-0.9-1.6-4.7,0.4-9.8c0,0,3.1-1,10.2,3.8c2.9-0.8,6.1-1.2,9.2-1.2c3.1,0,6.3,0.4,9.2,1.2c7-4.8,10.1-3.8,10.1-3.8
	c2,5.1,0.7,8.8,0.4,9.8c2.4,2.6,3.8,5.9,3.8,9.9c0,14.2-8.6,17.3-16.9,18.2c1.3,1.1,2.5,3.4,2.5,6.8c0,4.9,0,8.9,0,10.1
	c0,1,0.7,2.1,2.5,1.8c14.7-4.9,25.2-18.7,25.2-35C306.1,89.1,289.5,72.6,269.2,72.6z"/>
<g>
	<path fill="#E1655A" d="M378.5,91.2V79.5c0-3.7-3-6.7-6.7-6.7h-59c-3.7,0-6.7,3-6.7,6.7v11.8l36.2,13.8L378.5,91.2z"/>
	<path fill="#E1655A" d="M342.3,111.9L342.3,111.9L342.3,111.9l-36.2-13.8v40.3c0,3.7,3,6.7,6.7,6.7h59c3.7,0,6.7-3,6.7-6.7V98.1
		L342.3,111.9z"/>
</g>
</svg>
