<svg version="1.1"
	 xmlns="http://www.w3.org/2000/svg" xmlns:xlink="http://www.w3.org/1999/xlink"
	 x="0px" y="0px" width="152.8px" height="384.6px" viewBox="0 0 152.8 384.6" enable-background="new 0 0 152.8 384.6"
	 xml:space="preserve">
<defs>
</defs>
<path fill="#454545" d="M36,0C16.1,0,0,16.1,0,35.9c0,19.8,16.1,35.9,36,35.9c19.8,0,36-16.1,36-35.9C72,16.1,55.8,0,36,0z
	 M59.8,16.5c4.3,5.2,6.9,11.9,6.9,19.1c-1-0.2-11.2-2.3-21.4-1c-0.2-0.5-0.4-1.1-0.7-1.6c-0.6-1.5-1.3-3-2-4.4
	C54,24,59.1,17.4,59.8,16.5z M36,5.2c7.8,0,15,2.9,20.4,7.7c-0.6,0.8-5.2,7-16.1,11.1c-5-9.2-10.6-16.8-11.5-18
	C31.1,5.5,33.5,5.2,36,5.2z M22.9,8.2c0.8,1.1,6.3,8.7,11.4,17.8c-14.4,3.8-27,3.8-28.4,3.7C7.9,20.1,14.3,12.2,22.9,8.2z M5.3,35.9
	c0-0.3,0-0.6,0-0.9c1.3,0,16.2,0.2,31.6-4.4c0.9,1.7,1.7,3.5,2.5,5.2c-0.4,0.1-0.8,0.2-1.2,0.4c-15.9,5.1-24.3,19.1-25,20.3
	C8.2,51,5.3,43.8,5.3,35.9z M36,66.6c-7.1,0-13.7-2.4-18.9-6.5C17.7,59,23.9,47,41.2,41c0.1,0,0.1,0,0.2-0.1
	c4.3,11.2,6.1,20.6,6.6,23.3C44.3,65.8,40.3,66.6,36,66.6z M53.2,61.4c-0.3-1.9-2-10.9-6-21.9c9.6-1.5,18.1,1,19.2,1.3
	C65,49.4,60.1,56.7,53.2,61.4z"/>
<path fill="#454545" d="M72.1,88.8c-2.7,1.2-5.5,2-8.5,2.3c3.1-1.8,5.4-4.7,6.5-8.2c-2.9,1.7-6,2.9-9.4,3.6
	c-2.7-2.9-6.5-4.7-10.8-4.7c-8.2,0-14.8,6.6-14.8,14.8c0,1.2,0.1,2.3,0.4,3.4C23.2,99.4,12.3,93.5,5,84.6c-1.3,2.2-2,4.7-2,7.4
	c0,5.1,2.6,9.7,6.6,12.3c-2.4-0.1-4.7-0.7-6.7-1.8c0,0.1,0,0.1,0,0.2c0,7.2,5.1,13.1,11.9,14.5c-1.2,0.3-2.5,0.5-3.9,0.5
	c-1,0-1.9-0.1-2.8-0.3c1.9,5.9,7.3,10.2,13.8,10.3c-5.1,4-11.4,6.3-18.4,6.3c-1.2,0-2.4-0.1-3.5-0.2c6.5,4.2,14.3,6.6,22.7,6.6
	c27.2,0,42.1-22.5,42.1-42.1c0-0.6,0-1.3,0-1.9C67.6,94.4,70.1,91.8,72.1,88.8z"/>
<g>
	<path fill="#454545" d="M1.2,174.3h14.9v48H1.2V174.3z M8.7,150.5c4.8,0,8.7,3.9,8.7,8.7c0,4.8-3.9,8.7-8.7,8.7
		c-4.8,0-8.7-3.9-8.7-8.7C0,154.4,3.9,150.5,8.7,150.5"/>
	<path fill="#454545" d="M25.5,174.3h14.3v6.6H40c2-3.8,6.9-7.8,14.1-7.8c15.1,0,17.9,9.9,17.9,22.9v26.3H57.1V199
		c0-5.6-0.1-12.7-7.8-12.7c-7.8,0-9,6.1-9,12.3v23.8H25.5V174.3z"/>
</g>
<path fill-rule="evenodd" clip-rule="evenodd" fill="#454545" d="M116.7,232.4c-19.9,0-36,16.1-36,36c0,15.9,10.3,29.4,24.6,34.1
	c1.8,0.3,2.5-0.8,2.5-1.7c0-0.9,0-3.1,0-6.1c-10,2.2-12.1-4.8-12.1-4.8c-1.6-4.2-4-5.3-4-5.3c-3.3-2.2,0.2-2.2,0.2-2.2
	c3.6,0.3,5.5,3.7,5.5,3.7c3.2,5.5,8.4,3.9,10.5,3c0.3-2.3,1.3-3.9,2.3-4.8c-8-0.9-16.4-4-16.4-17.8c0-3.9,1.4-7.1,3.7-9.7
	c-0.4-0.9-1.6-4.6,0.4-9.5c0,0,3-1,9.9,3.7c2.9-0.8,5.9-1.2,9-1.2c3.1,0,6.1,0.4,9,1.2c6.9-4.7,9.9-3.7,9.9-3.7c2,5,0.7,8.6,0.4,9.5
	c2.3,2.5,3.7,5.7,3.7,9.7c0,13.8-8.4,16.9-16.4,17.8c1.3,1.1,2.4,3.3,2.4,6.7c0,4.8,0,8.7,0,9.9c0,1,0.6,2.1,2.5,1.7
	c14.3-4.8,24.6-18.2,24.6-34.1C152.7,248.5,136.6,232.4,116.7,232.4z"/>
<g>
	<path fill="#454545" d="M72.1,330.9v-11.7c0-3.7-3-6.7-6.7-6.7H6.7c-3.7,0-6.7,3-6.7,6.7v11.7l36,13.7L72.1,330.9z"/>
	<path fill="#454545" d="M36.1,351.5L36.1,351.5L36.1,351.5L0,337.8v40.2c0,3.7,3,6.7,6.7,6.7h58.7c3.7,0,6.7-3,6.7-6.7v-40.2
		L36.1,351.5z"/>
</g>
<path fill="#C32261" d="M116.7,0c-19.8,0-36,16.1-36,35.9c0,19.8,16.1,35.9,36,35.9c19.8,0,36-16.1,36-35.9
	C152.7,16.1,136.6,0,116.7,0z M140.5,16.5c4.3,5.2,6.9,11.9,6.9,19.1c-1-0.2-11.2-2.3-21.4-1c-0.2-0.5-0.4-1.1-0.7-1.6
	c-0.6-1.5-1.3-3-2-4.4C134.7,24,139.9,17.4,140.5,16.5z M116.7,5.2c7.8,0,15,2.9,20.4,7.7c-0.6,0.8-5.2,7-16.1,11.1
	c-5-9.2-10.6-16.8-11.5-18C111.8,5.5,114.2,5.2,116.7,5.2z M103.6,8.2c0.8,1.1,6.3,8.7,11.4,17.8c-14.4,3.8-27,3.8-28.4,3.7
	C88.6,20.1,95,12.2,103.6,8.2z M86,35.9c0-0.3,0-0.6,0-0.9c1.3,0,16.2,0.2,31.6-4.4c0.9,1.7,1.7,3.5,2.5,5.2
	c-0.4,0.1-0.8,0.2-1.2,0.4c-15.9,5.1-24.3,19.1-25,20.3C89,51,86,43.8,86,35.9z M116.7,66.6c-7.1,0-13.7-2.4-18.9-6.5
	C98.4,59,104.6,47,122,41c0.1,0,0.1,0,0.2-0.1c4.3,11.2,6.1,20.6,6.6,23.3C125,65.8,121,66.6,116.7,66.6z M133.9,61.4
	c-0.3-1.9-2-10.9-6-21.9c9.6-1.5,18.1,1,19.2,1.3C145.7,49.4,140.8,56.7,133.9,61.4z"/>
<path fill="#5FA9DD" d="M152.8,88.8c-2.7,1.2-5.5,2-8.5,2.3c3.1-1.8,5.4-4.7,6.5-8.2c-2.9,1.7-6,2.9-9.4,3.6
	c-2.7-2.9-6.5-4.7-10.8-4.7c-8.2,0-14.8,6.6-14.8,14.8c0,1.2,0.1,2.3,0.4,3.4c-12.3-0.6-23.2-6.5-30.5-15.5c-1.3,2.2-2,4.7-2,7.4
	c0,5.1,2.6,9.7,6.6,12.3c-2.4-0.1-4.7-0.7-6.7-1.8c0,0.1,0,0.1,0,0.2c0,7.2,5.1,13.1,11.9,14.5c-1.2,0.3-2.5,0.5-3.9,0.5
	c-1,0-1.9-0.1-2.8-0.3c1.9,5.9,7.3,10.2,13.8,10.3c-5.1,4-11.4,6.3-18.4,6.3c-1.2,0-2.4-0.1-3.5-0.2c6.5,4.2,14.3,6.6,22.7,6.6
	c27.2,0,42.1-22.5,42.1-42.1c0-0.6,0-1.3,0-1.9C148.3,94.4,150.8,91.8,152.8,88.8z"/>
<g>
	<path fill="#017BB6" d="M81.9,174.3h14.9v48H81.9V174.3z M89.4,150.5c4.8,0,8.7,3.9,8.7,8.7c0,4.8-3.9,8.7-8.7,8.7
		c-4.8,0-8.7-3.9-8.7-8.7C80.7,154.4,84.6,150.5,89.4,150.5"/>
	<path fill="#017BB6" d="M106.2,174.3h14.3v6.6h0.2c2-3.8,6.9-7.8,14.1-7.8c15.1,0,17.9,9.9,17.9,22.9v26.3h-14.9V199
		c0-5.6-0.1-12.7-7.8-12.7c-7.8,0-9,6.1-9,12.3v23.8h-14.9V174.3z"/>
</g>
<path fill-rule="evenodd" clip-rule="evenodd" d="M36,232.4c-19.9,0-36,16.1-36,36c0,15.9,10.3,29.4,24.6,34.1
	c1.8,0.3,2.5-0.8,2.5-1.7c0-0.9,0-3.1,0-6.1c-10,2.2-12.1-4.8-12.1-4.8c-1.6-4.2-4-5.3-4-5.3c-3.3-2.2,0.2-2.2,0.2-2.2
	c3.6,0.3,5.5,3.7,5.5,3.7c3.2,5.5,8.4,3.9,10.5,3c0.3-2.3,1.3-3.9,2.3-4.8c-8-0.9-16.4-4-16.4-17.8c0-3.9,1.4-7.1,3.7-9.7
	c-0.4-0.9-1.6-4.6,0.4-9.5c0,0,3-1,9.9,3.7c2.9-0.8,5.9-1.2,9-1.2c3.1,0,6.1,0.4,9,1.2c6.9-4.7,9.9-3.7,9.9-3.7c2,5,0.7,8.6,0.4,9.5
	c2.3,2.5,3.7,5.7,3.7,9.7c0,13.8-8.4,16.9-16.4,17.8c1.3,1.1,2.4,3.3,2.4,6.7c0,4.8,0,8.7,0,9.9c0,1,0.6,2.1,2.5,1.7
	c14.3-4.8,24.6-18.2,24.6-34.1C72,248.5,55.9,232.4,36,232.4z"/>
<g>
	<path fill="#E1655A" d="M152.8,330.9v-11.7c0-3.7-3-6.7-6.7-6.7H87.4c-3.7,0-6.7,3-6.7,6.7v11.7l36,13.7L152.8,330.9z"/>
	<path fill="#E1655A" d="M116.8,351.5L116.8,351.5L116.8,351.5l-36-13.7v40.2c0,3.7,3,6.7,6.7,6.7h58.7c3.7,0,6.7-3,6.7-6.7v-40.2
		L116.8,351.5z"/>
</g>
</svg>
