<svg version="1.1"
	 xmlns="http://www.w3.org/2000/svg" xmlns:xlink="http://www.w3.org/1999/xlink"
	 x="0px" y="0px" width="286.6px" height="286.2px" viewBox="0 0 286.6 286.2" enable-background="new 0 0 286.6 286.2"
	 xml:space="preserve">
<defs>
</defs>
<path fill="#444444" d="M143.3,0C64.3,0,0,64.2,0,143.1C0,222,64.3,286.2,143.3,286.2c79,0,143.3-64.2,143.3-143.1
	C286.6,64.2,222.3,0,143.3,0z M238,65.8c17,20.8,27.4,47.3,27.6,76.1c-4-0.9-44.5-9-85.2-3.9c-0.9-2.1-1.7-4.2-2.6-6.3
	c-2.5-6-5.3-11.9-8.1-17.7C214.9,95.5,235.4,69.3,238,65.8z M143.3,20.9c31.1,0,59.5,11.6,81.1,30.8c-2.2,3.1-20.6,27.9-64.1,44.1
	c-20.1-36.8-42.3-67-45.7-71.5C123.8,22.1,133.4,20.9,143.3,20.9z M91.3,32.5c3.2,4.4,25.1,34.7,45.4,70.7
	c-57.2,15.2-107.7,15-113.1,14.9C31.4,80.1,57,48.6,91.3,32.5z M20.9,143.1c0-1.2,0-2.5,0.1-3.7c5.4,0.1,64.7,0.9,125.8-17.4
	c3.5,6.8,6.8,13.8,9.9,20.7c-1.6,0.5-3.2,0.9-4.8,1.5c-63.1,20.4-96.7,75.9-99.5,80.7C32.8,203.1,20.9,174.5,20.9,143.1z
	 M143.3,265.3c-28.3,0-54.4-9.6-75.1-25.8c2.2-4.5,27-52.3,96-76.3c0.3-0.1,0.5-0.2,0.8-0.3c17.2,44.6,24.3,82,26.1,92.7
	C176.4,261.8,160.2,265.3,143.3,265.3z M211.7,244.4c-1.3-7.4-7.8-43.2-23.8-87.1c38.4-6.1,72,3.9,76.2,5.2
	C258.7,196.5,239.1,225.9,211.7,244.4z"/>
</svg>
